nColumns=19
nRows=26
DataType=double
version=3
OpenSimVersion=4.1
endheader
time	ground_force_calcn_r_vx	ground_force_calcn_r_vy	ground_force_calcn_r_vz	ground_force_calcn_r_px	ground_force_calcn_r_py	ground_force_calcn_r_pz	ground_force_calcn_r_mx	ground_force_calcn_r_my	ground_force_calcn_r_mz	ground_force_calcn_l_vx	ground_force_calcn_l_vy	ground_force_calcn_l_vz	ground_force_calcn_l_px	ground_force_calcn_l_py	ground_force_calcn_l_pz	ground_force_calcn_l_mx	ground_force_calcn_l_my	ground_force_calcn_l_mz
6.4	-11.7187	579.029	-40.9746	-0.227508	0	-0.400067	0.0826626	-4.08442	0.289031	3.7672	108.772	27.9882	-0.171891	0	-0.788461	0.06229	1.79853	0.46278
6.41	-12.1423	582.974	-40.1546	-0.227611	0	-0.400169	0.0864857	-4.15233	0.286008	3.76968	110.708	28.1657	-0.172176	0	-0.788583	0.062233	1.82765	0.464982
6.42	-12.3704	586.939	-39.2389	-0.227782	0	-0.400316	0.088761	-4.21146	0.281551	3.77732	112.657	28.251	-0.172487	0	-0.788628	0.0622647	1.85702	0.465685
6.43	-12.3847	590.851	-38.2462	-0.228013	0	-0.400495	0.0893183	-4.26122	0.275831	3.79722	114.601	28.2486	-0.172821	0	-0.7886	0.0625034	1.88636	0.46498
6.44	-12.1808	594.655	-37.1955	-0.228291	0	-0.4007	0.0881168	-4.30177	0.269074	3.83568	116.524	28.1675	-0.173182	0	-0.788504	0.0630442	1.91522	0.462969
6.45	-11.7654	598.316	-36.1077	-0.228599	0	-0.400916	0.0852241	-4.33397	0.261551	3.89731	118.421	28.0212	-0.173576	0	-0.788353	0.0639428	1.94292	0.459742
6.46	-11.1554	601.821	-35.0071	-0.22892	0	-0.401136	0.080803	-4.35923	0.25357	3.98455	120.291	27.8262	-0.174009	0	-0.788153	0.0652137	1.96876	0.455421
6.47	-10.3789	605.191	-33.9188	-0.229238	0	-0.401348	0.0751076	-4.37952	0.245457	4.09734	122.144	27.5997	-0.174489	0	-0.787917	0.066826	1.99213	0.450139
6.48	-9.47178	608.479	-32.8655	-0.229536	0	-0.401543	0.0684507	-4.39736	0.237512	4.23283	123.998	27.3589	-0.175022	0	-0.787654	0.0686998	2.01252	0.444042
6.49	-8.47206	611.76	-31.8644	-0.229798	0	-0.401716	0.0611503	-4.41561	0.229994	4.38514	125.877	27.12	-0.175615	0	-0.787374	0.0707091	2.02973	0.437302
6.5	-7.41725	615.119	-30.9281	-0.230014	0	-0.401859	0.0535048	-4.4372	0.223102	4.54676	127.811	26.8973	-0.176276	0	-0.787088	0.0727151	2.04405	0.430161
6.51	-6.34323	618.649	-30.0641	-0.230174	0	-0.401972	0.0457817	-4.46505	0.216985	4.71	129.835	26.7033	-0.177014	0	-0.786801	0.0745953	2.05628	0.422917
6.52	-5.28126	622.45	-29.2717	-0.230273	0	-0.402053	0.0381984	-4.50207	0.211717	4.86883	131.984	26.5488	-0.177835	0	-0.786523	0.0762636	2.06734	0.41585
6.53	-4.25478	626.614	-28.5427	-0.230309	0	-0.402104	0.0309013	-4.55092	0.207297	5.01989	134.288	26.4419	-0.178745	0	-0.786259	0.0776845	2.07815	0.409196
6.54	-3.27724	631.221	-27.8663	-0.230283	0	-0.402125	0.0239529	-4.61352	0.203671	5.16191	136.771	26.3875	-0.179746	0	-0.786014	0.0788632	2.08958	0.403147
6.55	-2.35315	636.329	-27.2324	-0.230199	0	-0.402117	0.0173467	-4.69083	0.200749	5.29411	139.446	26.3877	-0.180834	0	-0.785794	0.0798216	2.10248	0.397859
6.56	-1.48134	641.969	-26.6324	-0.230063	0	-0.402083	0.0110362	-4.78278	0.198416	5.41454	142.31	26.441	-0.181998	0	-0.785602	0.0805653	2.11749	0.393428
6.57	-0.659804	648.135	-26.0616	-0.229879	0	-0.402023	0.00497609	-4.88809	0.196551	5.5197	145.351	26.543	-0.183222	0	-0.785436	0.0810762	2.13499	0.389878
6.58	0.110893	654.784	-25.5206	-0.229651	0	-0.401938	-0.000847533	-5.00439	0.195049	5.60475	148.542	26.6856	-0.184487	0	-0.785295	0.0813124	2.15501	0.387149
6.59	0.826221	661.831	-25.0138	-0.229378	0	-0.401828	-0.00640233	-5.12848	0.19383	5.66372	151.846	26.8581	-0.185767	0	-0.785179	0.0812088	2.17723	0.385103
6.6	1.47618	669.159	-24.5486	-0.229065	0	-0.401693	-0.011596	-5.25653	0.19284	5.69006	155.219	27.0489	-0.187035	0	-0.785086	0.0806859	2.20103	0.383558
6.61	2.04522	676.615	-24.1335	-0.228712	0	-0.401536	-0.016275	-5.3842	0.192044	5.67775	158.614	27.2474	-0.188263	0	-0.785012	0.0796679	2.22561	0.382324
6.62	2.51502	684.024	-23.7775	-0.228321	0	-0.401359	-0.0202478	-5.50691	0.191427	5.62249	161.983	27.4445	-0.189426	0	-0.784955	0.0781012	2.25008	0.381227
6.63	2.867	691.194	-23.4877	-0.227897	0	-0.401166	-0.0233116	-5.62011	0.190979	5.52177	165.275	27.6327	-0.190503	0	-0.784911	0.0759561	2.27348	0.380108
6.64	3.08365	697.933	-23.2674	-0.227446	0	-0.400961	-0.0252705	-5.71955	0.190676	5.37397	168.435	27.8055	-0.191481	0	-0.784874	0.0732196	2.29491	0.378847
6.65	3.14915	704.057	-23.1164	-0.226974	0	-0.400752	-0.0259492	-5.80148	0.190481	5.17734	171.406	27.9577	-0.192342	0	-0.784839	0.0698798	2.3135	0.377352
